<?xml version="1.0" encoding="UTF-8" standalone="no"?>
<!DOCTYPE svg PUBLIC "-//W3C//DTD SVG 1.1//EN"
 "http://www.w3.org/Graphics/SVG/1.1/DTD/svg11.dtd">
<!-- Generated by graphviz version 2.38.0 (20140413.2041)
 -->
<!-- Title: Problem&lt; T, D &gt; Pages: 1 -->
<!--zoomable 822 -->
<svg id="main" version="1.1" xmlns="http://www.w3.org/2000/svg" xmlns:xlink="http://www.w3.org/1999/xlink" xml:space="preserve" onload="init(evt)">
<style type="text/css"><![CDATA[
.edge:hover path { stroke: red; }
.edge:hover polygon { stroke: red; fill: red; }
]]></style>
<script type="text/javascript"><![CDATA[
var edges = document.getElementsByTagName('g');
if (edges && edges.length) {
  for (var i=0;i<edges.length;i++) {
    if (edges[i].id.substr(0,4)=='edge') {
      edges[i].setAttribute('class','edge');
    }
  }
}
]]></script>
        <defs>
                <circle id="rim" cx="0" cy="0" r="7"/>
                <circle id="rim2" cx="0" cy="0" r="3.5"/>
                <g id="zoomPlus">
                        <use xlink:href="#rim" fill="#404040">
                                <set attributeName="fill" to="#808080" begin="zoomplus.mouseover" end="zoomplus.mouseout"/>
                        </use>
                        <path d="M-4,0h8M0,-4v8" fill="none" stroke="white" stroke-width="1.5" pointer-events="none"/>
                </g>
                <g id="zoomMin">
                        <use xlink:href="#rim" fill="#404040">
                                <set attributeName="fill" to="#808080" begin="zoomminus.mouseover" end="zoomminus.mouseout"/>
                        </use>
                        <path d="M-4,0h8" fill="none" stroke="white" stroke-width="1.5" pointer-events="none"/>
                </g>
                <g id="dirArrow">
                        <path fill="none" stroke="white" stroke-width="1.5" d="M0,-3.0v7 M-2.5,-0.5L0,-3.0L2.5,-0.5"/>
                </g>
               <g id="resetDef">
                       <use xlink:href="#rim2" fill="#404040">
                               <set attributeName="fill" to="#808080" begin="reset.mouseover" end="reset.mouseout"/>
                       </use>
               </g>
        </defs>

<script type="text/javascript">
var viewWidth = 484;
var viewHeight = 822;
var sectionId = 'dynsection-0';
</script>
<script xlink:href="svgpan.js"/>
<svg id="graph" class="graph">
<g id="viewport">
<title>Problem&lt; T, D &gt;</title>
<!-- Node1 -->
<g id="node1" class="node"><title>Node1</title>
<polygon fill="#bfbfbf" stroke="black" points="199.5,-558.5 199.5,-813.5 293.5,-813.5 293.5,-558.5 199.5,-558.5"/>
<text text-anchor="middle" x="246.5" y="-801.5" font-family="Helvetica,sans-Serif" font-size="10.00">Problem&lt; T, D &gt;</text>
<polyline fill="none" stroke="black" points="199.5,-794.5 293.5,-794.5 "/>
<text text-anchor="start" x="207.5" y="-782.5" font-family="Helvetica,sans-Serif" font-size="10.00"># mIndex</text>
<polyline fill="none" stroke="black" points="199.5,-775.5 293.5,-775.5 "/>
<text text-anchor="start" x="207.5" y="-763.5" font-family="Helvetica,sans-Serif" font-size="10.00">+ Problem()</text>
<text text-anchor="start" x="207.5" y="-752.5" font-family="Helvetica,sans-Serif" font-size="10.00">+ ~Problem()</text>
<text text-anchor="start" x="207.5" y="-741.5" font-family="Helvetica,sans-Serif" font-size="10.00">+ run()</text>
<text text-anchor="start" x="207.5" y="-730.5" font-family="Helvetica,sans-Serif" font-size="10.00">+ run()</text>
<text text-anchor="start" x="207.5" y="-719.5" font-family="Helvetica,sans-Serif" font-size="10.00">+ push()</text>
<text text-anchor="start" x="207.5" y="-708.5" font-family="Helvetica,sans-Serif" font-size="10.00">+ pop()</text>
<text text-anchor="start" x="207.5" y="-697.5" font-family="Helvetica,sans-Serif" font-size="10.00">+ top()</text>
<text text-anchor="start" x="207.5" y="-686.5" font-family="Helvetica,sans-Serif" font-size="10.00">+ emptystack()</text>
<text text-anchor="start" x="207.5" y="-675.5" font-family="Helvetica,sans-Serif" font-size="10.00">+ setContext()</text>
<text text-anchor="start" x="207.5" y="-664.5" font-family="Helvetica,sans-Serif" font-size="10.00">+ setIndex()</text>
<text text-anchor="start" x="207.5" y="-653.5" font-family="Helvetica,sans-Serif" font-size="10.00">+ getContext()</text>
<text text-anchor="start" x="207.5" y="-642.5" font-family="Helvetica,sans-Serif" font-size="10.00">+ getIndex()</text>
<text text-anchor="start" x="207.5" y="-631.5" font-family="Helvetica,sans-Serif" font-size="10.00">+ toString()</text>
<text text-anchor="start" x="207.5" y="-620.5" font-family="Helvetica,sans-Serif" font-size="10.00">+ print()</text>
<text text-anchor="start" x="207.5" y="-609.5" font-family="Helvetica,sans-Serif" font-size="10.00">+ println()</text>
<text text-anchor="start" x="207.5" y="-598.5" font-family="Helvetica,sans-Serif" font-size="10.00">+ readPush()</text>
<text text-anchor="start" x="207.5" y="-587.5" font-family="Helvetica,sans-Serif" font-size="10.00"># initStackIntern()</text>
<text text-anchor="start" x="207.5" y="-576.5" font-family="Helvetica,sans-Serif" font-size="10.00"># readLine()</text>
<text text-anchor="start" x="207.5" y="-565.5" font-family="Helvetica,sans-Serif" font-size="10.00"># readHeader()</text>
</g>
<!-- Node2 -->
<g id="node2" class="node"><title>Node2</title>
<g id="a_node2"><a xlink:href="class_compare_stacks.html" target="_top" xlink:title="{CompareStacks\&lt; T, D \&gt;\n||+ CompareStacks()\l+ runCompare()\l+ printCompare()\l+ readPush()\l}">
<polygon fill="none" stroke="black" points="184,-332.5 184,-422.5 309,-422.5 309,-332.5 184,-332.5"/>
<text text-anchor="middle" x="246.5" y="-410.5" font-family="Helvetica,sans-Serif" font-size="10.00">CompareStacks&lt; T, D &gt;</text>
<polyline fill="none" stroke="black" points="184,-403.5 309,-403.5 "/>
<text text-anchor="middle" x="246.5" y="-391.5" font-family="Helvetica,sans-Serif" font-size="10.00"> </text>
<polyline fill="none" stroke="black" points="184,-384.5 309,-384.5 "/>
<text text-anchor="start" x="192" y="-372.5" font-family="Helvetica,sans-Serif" font-size="10.00">+ CompareStacks()</text>
<text text-anchor="start" x="192" y="-361.5" font-family="Helvetica,sans-Serif" font-size="10.00">+ runCompare()</text>
<text text-anchor="start" x="192" y="-350.5" font-family="Helvetica,sans-Serif" font-size="10.00">+ printCompare()</text>
<text text-anchor="start" x="192" y="-339.5" font-family="Helvetica,sans-Serif" font-size="10.00">+ readPush()</text>
</a>
</g>
</g>
<!-- Node1&#45;&gt;Node2 -->
<g id="edge1" class="edge"><title>Node1&#45;&gt;Node2</title>
<path fill="none" stroke="midnightblue" d="M246.5,-547.932C246.5,-502.848 246.5,-455.875 246.5,-422.855"/>
<polygon fill="none" stroke="midnightblue" points="243,-548.122 246.5,-558.122 250,-548.122 243,-548.122"/>
</g>
<!-- Node7 -->
<g id="node7" class="node"><title>Node7</title>
<g id="a_node7"><a xlink:href="class_problem.html" target="_top" xlink:title="{Problem\&lt; int, int \&gt;\n|# mIndex\l|+ Problem()\l+ ~Problem()\l+ run()\l+ run()\l+ push()\l+ pop()\l+ top()\l+ emptystack()\l+ setContext()\l+ setIndex()\l+ getContext()\l+ getIndex()\l+ toString()\l+ print()\l+ println()\l+ readPush()\l# initStackIntern()\l# readLine()\l# readHeader()\l}">
<polygon fill="none" stroke="black" points="67.5,-250 67.5,-505 165.5,-505 165.5,-250 67.5,-250"/>
<text text-anchor="middle" x="116.5" y="-493" font-family="Helvetica,sans-Serif" font-size="10.00">Problem&lt; int, int &gt;</text>
<polyline fill="none" stroke="black" points="67.5,-486 165.5,-486 "/>
<text text-anchor="start" x="75.5" y="-474" font-family="Helvetica,sans-Serif" font-size="10.00"># mIndex</text>
<polyline fill="none" stroke="black" points="67.5,-467 165.5,-467 "/>
<text text-anchor="start" x="75.5" y="-455" font-family="Helvetica,sans-Serif" font-size="10.00">+ Problem()</text>
<text text-anchor="start" x="75.5" y="-444" font-family="Helvetica,sans-Serif" font-size="10.00">+ ~Problem()</text>
<text text-anchor="start" x="75.5" y="-433" font-family="Helvetica,sans-Serif" font-size="10.00">+ run()</text>
<text text-anchor="start" x="75.5" y="-422" font-family="Helvetica,sans-Serif" font-size="10.00">+ run()</text>
<text text-anchor="start" x="75.5" y="-411" font-family="Helvetica,sans-Serif" font-size="10.00">+ push()</text>
<text text-anchor="start" x="75.5" y="-400" font-family="Helvetica,sans-Serif" font-size="10.00">+ pop()</text>
<text text-anchor="start" x="75.5" y="-389" font-family="Helvetica,sans-Serif" font-size="10.00">+ top()</text>
<text text-anchor="start" x="75.5" y="-378" font-family="Helvetica,sans-Serif" font-size="10.00">+ emptystack()</text>
<text text-anchor="start" x="75.5" y="-367" font-family="Helvetica,sans-Serif" font-size="10.00">+ setContext()</text>
<text text-anchor="start" x="75.5" y="-356" font-family="Helvetica,sans-Serif" font-size="10.00">+ setIndex()</text>
<text text-anchor="start" x="75.5" y="-345" font-family="Helvetica,sans-Serif" font-size="10.00">+ getContext()</text>
<text text-anchor="start" x="75.5" y="-334" font-family="Helvetica,sans-Serif" font-size="10.00">+ getIndex()</text>
<text text-anchor="start" x="75.5" y="-323" font-family="Helvetica,sans-Serif" font-size="10.00">+ toString()</text>
<text text-anchor="start" x="75.5" y="-312" font-family="Helvetica,sans-Serif" font-size="10.00">+ print()</text>
<text text-anchor="start" x="75.5" y="-301" font-family="Helvetica,sans-Serif" font-size="10.00">+ println()</text>
<text text-anchor="start" x="75.5" y="-290" font-family="Helvetica,sans-Serif" font-size="10.00">+ readPush()</text>
<text text-anchor="start" x="75.5" y="-279" font-family="Helvetica,sans-Serif" font-size="10.00"># initStackIntern()</text>
<text text-anchor="start" x="75.5" y="-268" font-family="Helvetica,sans-Serif" font-size="10.00"># readLine()</text>
<text text-anchor="start" x="75.5" y="-257" font-family="Helvetica,sans-Serif" font-size="10.00"># readHeader()</text>
</a>
</g>
</g>
<!-- Node1&#45;&gt;Node7 -->
<g id="edge6" class="edge"><title>Node1&#45;&gt;Node7</title>
<path fill="none" stroke="orange" d="M195.354,-564.413C185.539,-541.272 175.281,-517.088 165.534,-494.108"/>
<polygon fill="orange" stroke="orange" points="192.256,-566.074 199.383,-573.913 198.701,-563.34 192.256,-566.074"/>
<text text-anchor="middle" x="206" y="-532" font-family="Helvetica,sans-Serif" font-size="10.00"> &lt; int, int &gt;</text>
</g>
<!-- Node9 -->
<g id="node9" class="node"><title>Node9</title>
<g id="a_node9"><a xlink:href="class_problem.html" target="_top" xlink:title="{Problem\&lt; emptyContext,\l Point2D \&gt;\n|# mIndex\l|+ Problem()\l+ ~Problem()\l+ run()\l+ run()\l+ push()\l+ pop()\l+ top()\l+ emptystack()\l+ setContext()\l+ setIndex()\l+ getContext()\l+ getIndex()\l+ toString()\l+ print()\l+ println()\l+ readPush()\l# initStackIntern()\l# readLine()\l# readHeader()\l}">
<polygon fill="none" stroke="black" points="327.5,-244.5 327.5,-510.5 453.5,-510.5 453.5,-244.5 327.5,-244.5"/>
<text text-anchor="start" x="335.5" y="-498.5" font-family="Helvetica,sans-Serif" font-size="10.00">Problem&lt; emptyContext,</text>
<text text-anchor="middle" x="390.5" y="-487.5" font-family="Helvetica,sans-Serif" font-size="10.00"> Point2D &gt;</text>
<polyline fill="none" stroke="black" points="327.5,-480.5 453.5,-480.5 "/>
<text text-anchor="start" x="335.5" y="-468.5" font-family="Helvetica,sans-Serif" font-size="10.00"># mIndex</text>
<polyline fill="none" stroke="black" points="327.5,-461.5 453.5,-461.5 "/>
<text text-anchor="start" x="335.5" y="-449.5" font-family="Helvetica,sans-Serif" font-size="10.00">+ Problem()</text>
<text text-anchor="start" x="335.5" y="-438.5" font-family="Helvetica,sans-Serif" font-size="10.00">+ ~Problem()</text>
<text text-anchor="start" x="335.5" y="-427.5" font-family="Helvetica,sans-Serif" font-size="10.00">+ run()</text>
<text text-anchor="start" x="335.5" y="-416.5" font-family="Helvetica,sans-Serif" font-size="10.00">+ run()</text>
<text text-anchor="start" x="335.5" y="-405.5" font-family="Helvetica,sans-Serif" font-size="10.00">+ push()</text>
<text text-anchor="start" x="335.5" y="-394.5" font-family="Helvetica,sans-Serif" font-size="10.00">+ pop()</text>
<text text-anchor="start" x="335.5" y="-383.5" font-family="Helvetica,sans-Serif" font-size="10.00">+ top()</text>
<text text-anchor="start" x="335.5" y="-372.5" font-family="Helvetica,sans-Serif" font-size="10.00">+ emptystack()</text>
<text text-anchor="start" x="335.5" y="-361.5" font-family="Helvetica,sans-Serif" font-size="10.00">+ setContext()</text>
<text text-anchor="start" x="335.5" y="-350.5" font-family="Helvetica,sans-Serif" font-size="10.00">+ setIndex()</text>
<text text-anchor="start" x="335.5" y="-339.5" font-family="Helvetica,sans-Serif" font-size="10.00">+ getContext()</text>
<text text-anchor="start" x="335.5" y="-328.5" font-family="Helvetica,sans-Serif" font-size="10.00">+ getIndex()</text>
<text text-anchor="start" x="335.5" y="-317.5" font-family="Helvetica,sans-Serif" font-size="10.00">+ toString()</text>
<text text-anchor="start" x="335.5" y="-306.5" font-family="Helvetica,sans-Serif" font-size="10.00">+ print()</text>
<text text-anchor="start" x="335.5" y="-295.5" font-family="Helvetica,sans-Serif" font-size="10.00">+ println()</text>
<text text-anchor="start" x="335.5" y="-284.5" font-family="Helvetica,sans-Serif" font-size="10.00">+ readPush()</text>
<text text-anchor="start" x="335.5" y="-273.5" font-family="Helvetica,sans-Serif" font-size="10.00"># initStackIntern()</text>
<text text-anchor="start" x="335.5" y="-262.5" font-family="Helvetica,sans-Serif" font-size="10.00"># readLine()</text>
<text text-anchor="start" x="335.5" y="-251.5" font-family="Helvetica,sans-Serif" font-size="10.00"># readHeader()</text>
</a>
</g>
</g>
<!-- Node1&#45;&gt;Node9 -->
<g id="edge9" class="edge"><title>Node1&#45;&gt;Node9</title>
<path fill="none" stroke="orange" d="M297.991,-575.402C307.857,-554.403 318.283,-532.212 328.44,-510.593"/>
<polygon fill="orange" stroke="orange" points="294.736,-574.101 293.651,-584.64 301.071,-577.078 294.736,-574.101"/>
<text text-anchor="middle" x="380.5" y="-532" font-family="Helvetica,sans-Serif" font-size="10.00"> &lt; emptyContext, Point2D &gt;</text>
</g>
<!-- Node3 -->
<g id="node3" class="node"><title>Node3</title>
<g id="a_node3"><a xlink:href="class_compare_stacks.html" target="_top" xlink:title="{CompareStacks\&lt; int,\l int \&gt;\n||+ CompareStacks()\l+ runCompare()\l+ printCompare()\l+ readPush()\l}">
<polygon fill="none" stroke="black" points="87.5,-95.5 87.5,-196.5 197.5,-196.5 197.5,-95.5 87.5,-95.5"/>
<text text-anchor="start" x="95.5" y="-184.5" font-family="Helvetica,sans-Serif" font-size="10.00">CompareStacks&lt; int,</text>
<text text-anchor="middle" x="142.5" y="-173.5" font-family="Helvetica,sans-Serif" font-size="10.00"> int &gt;</text>
<polyline fill="none" stroke="black" points="87.5,-166.5 197.5,-166.5 "/>
<text text-anchor="middle" x="142.5" y="-154.5" font-family="Helvetica,sans-Serif" font-size="10.00"> </text>
<polyline fill="none" stroke="black" points="87.5,-147.5 197.5,-147.5 "/>
<text text-anchor="start" x="95.5" y="-135.5" font-family="Helvetica,sans-Serif" font-size="10.00">+ CompareStacks()</text>
<text text-anchor="start" x="95.5" y="-124.5" font-family="Helvetica,sans-Serif" font-size="10.00">+ runCompare()</text>
<text text-anchor="start" x="95.5" y="-113.5" font-family="Helvetica,sans-Serif" font-size="10.00">+ printCompare()</text>
<text text-anchor="start" x="95.5" y="-102.5" font-family="Helvetica,sans-Serif" font-size="10.00">+ readPush()</text>
</a>
</g>
</g>
<!-- Node2&#45;&gt;Node3 -->
<g id="edge2" class="edge"><title>Node2&#45;&gt;Node3</title>
<path fill="none" stroke="orange" d="M222.187,-322.847C204.91,-284.722 181.877,-233.894 165.018,-196.692"/>
<polygon fill="orange" stroke="orange" points="219.132,-324.586 226.448,-332.25 225.508,-321.697 219.132,-324.586"/>
<text text-anchor="middle" x="201" y="-218" font-family="Helvetica,sans-Serif" font-size="10.00"> &lt; int, int &gt;</text>
</g>
<!-- Node5 -->
<g id="node5" class="node"><title>Node5</title>
<g id="a_node5"><a xlink:href="class_compare_stacks.html" target="_top" xlink:title="{CompareStacks\&lt; emptyContext,\l Point2D \&gt;\n||+ CompareStacks()\l+ runCompare()\l+ printCompare()\l+ readPush()\l}">
<polygon fill="none" stroke="black" points="216,-95.5 216,-196.5 377,-196.5 377,-95.5 216,-95.5"/>
<text text-anchor="start" x="224" y="-184.5" font-family="Helvetica,sans-Serif" font-size="10.00">CompareStacks&lt; emptyContext,</text>
<text text-anchor="middle" x="296.5" y="-173.5" font-family="Helvetica,sans-Serif" font-size="10.00"> Point2D &gt;</text>
<polyline fill="none" stroke="black" points="216,-166.5 377,-166.5 "/>
<text text-anchor="middle" x="296.5" y="-154.5" font-family="Helvetica,sans-Serif" font-size="10.00"> </text>
<polyline fill="none" stroke="black" points="216,-147.5 377,-147.5 "/>
<text text-anchor="start" x="224" y="-135.5" font-family="Helvetica,sans-Serif" font-size="10.00">+ CompareStacks()</text>
<text text-anchor="start" x="224" y="-124.5" font-family="Helvetica,sans-Serif" font-size="10.00">+ runCompare()</text>
<text text-anchor="start" x="224" y="-113.5" font-family="Helvetica,sans-Serif" font-size="10.00">+ printCompare()</text>
<text text-anchor="start" x="224" y="-102.5" font-family="Helvetica,sans-Serif" font-size="10.00">+ readPush()</text>
</a>
</g>
</g>
<!-- Node2&#45;&gt;Node5 -->
<g id="edge4" class="edge"><title>Node2&#45;&gt;Node5</title>
<path fill="none" stroke="orange" d="M240.335,-322.164C238.541,-290.22 239.468,-249.468 250.5,-215 252.499,-208.756 255.264,-202.56 258.457,-196.597"/>
<polygon fill="orange" stroke="orange" points="236.847,-322.462 241.004,-332.207 243.832,-321.996 236.847,-322.462"/>
<text text-anchor="middle" x="312.5" y="-218" font-family="Helvetica,sans-Serif" font-size="10.00"> &lt; emptyContext, Point2D &gt;</text>
</g>
<!-- Node4 -->
<g id="node4" class="node"><title>Node4</title>
<g id="a_node4"><a xlink:href="class_comparison.html" target="_top" xlink:title="{Comparison\n||+ Comparison()\l}">
<polygon fill="none" stroke="black" points="100.5,-0.5 100.5,-57.5 184.5,-57.5 184.5,-0.5 100.5,-0.5"/>
<text text-anchor="middle" x="142.5" y="-45.5" font-family="Helvetica,sans-Serif" font-size="10.00">Comparison</text>
<polyline fill="none" stroke="black" points="100.5,-38.5 184.5,-38.5 "/>
<text text-anchor="middle" x="142.5" y="-26.5" font-family="Helvetica,sans-Serif" font-size="10.00"> </text>
<polyline fill="none" stroke="black" points="100.5,-19.5 184.5,-19.5 "/>
<text text-anchor="start" x="108.5" y="-7.5" font-family="Helvetica,sans-Serif" font-size="10.00">+ Comparison()</text>
</a>
</g>
</g>
<!-- Node3&#45;&gt;Node4 -->
<g id="edge3" class="edge"><title>Node3&#45;&gt;Node4</title>
<path fill="none" stroke="midnightblue" d="M142.5,-85.2151C142.5,-75.5929 142.5,-66.0561 142.5,-57.6848"/>
<polygon fill="none" stroke="midnightblue" points="139,-85.2281 142.5,-95.2282 146,-85.2282 139,-85.2281"/>
</g>
<!-- Node6 -->
<g id="node6" class="node"><title>Node6</title>
<g id="a_node6"><a xlink:href="classcomparison_convex_hull.html" target="_top" xlink:title="{comparisonConvexHull\n||+ comparisonConvexHull()\l}">
<polygon fill="none" stroke="black" points="230,-0.5 230,-57.5 363,-57.5 363,-0.5 230,-0.5"/>
<text text-anchor="middle" x="296.5" y="-45.5" font-family="Helvetica,sans-Serif" font-size="10.00">comparisonConvexHull</text>
<polyline fill="none" stroke="black" points="230,-38.5 363,-38.5 "/>
<text text-anchor="middle" x="296.5" y="-26.5" font-family="Helvetica,sans-Serif" font-size="10.00"> </text>
<polyline fill="none" stroke="black" points="230,-19.5 363,-19.5 "/>
<text text-anchor="start" x="238" y="-7.5" font-family="Helvetica,sans-Serif" font-size="10.00">+ comparisonConvexHull()</text>
</a>
</g>
</g>
<!-- Node5&#45;&gt;Node6 -->
<g id="edge5" class="edge"><title>Node5&#45;&gt;Node6</title>
<path fill="none" stroke="midnightblue" d="M296.5,-85.2151C296.5,-75.5929 296.5,-66.0561 296.5,-57.6848"/>
<polygon fill="none" stroke="midnightblue" points="293,-85.2281 296.5,-95.2282 300,-85.2282 293,-85.2281"/>
</g>
<!-- Node7&#45;&gt;Node3 -->
<g id="edge7" class="edge"><title>Node7&#45;&gt;Node3</title>
<path fill="none" stroke="midnightblue" d="M132.009,-239.607C133.732,-224.397 135.394,-209.727 136.867,-196.721"/>
<polygon fill="none" stroke="midnightblue" points="128.517,-239.337 130.869,-249.667 135.472,-240.125 128.517,-239.337"/>
</g>
<!-- Node8 -->
<g id="node8" class="node"><title>Node8</title>
<g id="a_node8"><a xlink:href="class_instance.html" target="_top" xlink:title="{Instance\n||+ Instance()\l}">
<polygon fill="none" stroke="black" points="0,-117.5 0,-174.5 69,-174.5 69,-117.5 0,-117.5"/>
<text text-anchor="middle" x="34.5" y="-162.5" font-family="Helvetica,sans-Serif" font-size="10.00">Instance</text>
<polyline fill="none" stroke="black" points="0,-155.5 69,-155.5 "/>
<text text-anchor="middle" x="34.5" y="-143.5" font-family="Helvetica,sans-Serif" font-size="10.00"> </text>
<polyline fill="none" stroke="black" points="0,-136.5 69,-136.5 "/>
<text text-anchor="start" x="8" y="-124.5" font-family="Helvetica,sans-Serif" font-size="10.00">+ Instance()</text>
</a>
</g>
</g>
<!-- Node7&#45;&gt;Node8 -->
<g id="edge8" class="edge"><title>Node7&#45;&gt;Node8</title>
<path fill="none" stroke="midnightblue" d="M67.7513,-240.063C58.8525,-215.157 50.4591,-191.666 44.3313,-174.516"/>
<polygon fill="none" stroke="midnightblue" points="64.5222,-241.428 71.1829,-249.667 71.1141,-239.073 64.5222,-241.428"/>
</g>
<!-- Node9&#45;&gt;Node5 -->
<g id="edge10" class="edge"><title>Node9&#45;&gt;Node5</title>
<path fill="none" stroke="midnightblue" d="M382.777,-234.497C380.45,-227.763 377.711,-221.225 374.5,-215 371.205,-208.614 367.036,-202.563 362.346,-196.899"/>
<polygon fill="none" stroke="midnightblue" points="379.575,-235.986 385.899,-244.486 386.256,-233.897 379.575,-235.986"/>
</g>
<!-- Node10 -->
<g id="node10" class="node"><title>Node10</title>
<g id="a_node10"><a xlink:href="classconvex_hull.html" target="_top" xlink:title="{convexHull\n||+ convexHull()\l}">
<polygon fill="none" stroke="black" points="395.5,-117.5 395.5,-174.5 475.5,-174.5 475.5,-117.5 395.5,-117.5"/>
<text text-anchor="middle" x="435.5" y="-162.5" font-family="Helvetica,sans-Serif" font-size="10.00">convexHull</text>
<polyline fill="none" stroke="black" points="395.5,-155.5 475.5,-155.5 "/>
<text text-anchor="middle" x="435.5" y="-143.5" font-family="Helvetica,sans-Serif" font-size="10.00"> </text>
<polyline fill="none" stroke="black" points="395.5,-136.5 475.5,-136.5 "/>
<text text-anchor="start" x="403.5" y="-124.5" font-family="Helvetica,sans-Serif" font-size="10.00">+ convexHull()</text>
</a>
</g>
</g>
<!-- Node9&#45;&gt;Node10 -->
<g id="edge11" class="edge"><title>Node9&#45;&gt;Node10</title>
<path fill="none" stroke="midnightblue" d="M418.396,-234.231C422.818,-211.68 426.944,-190.636 430.036,-174.869"/>
<polygon fill="none" stroke="midnightblue" points="414.906,-233.842 416.416,-244.329 421.775,-235.189 414.906,-233.842"/>
</g>
</g>
</svg>
        <g id="navigator" transform="translate(0 0)" fill="#404254">
                <rect fill="#f2f5e9" fill-opacity="0.5" stroke="#606060" stroke-width=".5" x="0" y="0" width="60" height="60"/>
                <use id="zoomplus" xlink:href="#zoomPlus" x="17" y="9" onmousedown="handleZoom(evt,'in')"/>
                <use id="zoomminus" xlink:href="#zoomMin" x="42" y="9" onmousedown="handleZoom(evt,'out')"/>
                <use id="reset" xlink:href="#resetDef" x="30" y="36" onmousedown="handleReset()"/>
                <g id="arrowUp" xlink:href="#dirArrow" transform="translate(30 24)" onmousedown="handlePan(0,-1)">
                  <use xlink:href="#rim" fill="#404040">
                        <set attributeName="fill" to="#808080" begin="arrowUp.mouseover" end="arrowUp.mouseout"/>
                  </use>
                  <path fill="none" stroke="white" stroke-width="1.5" d="M0,-3.0v7 M-2.5,-0.5L0,-3.0L2.5,-0.5"/>
                </g>
                <g id="arrowRight" xlink:href="#dirArrow" transform="rotate(90) translate(36 -43)" onmousedown="handlePan(1,0)">
                  <use xlink:href="#rim" fill="#404040">
                        <set attributeName="fill" to="#808080" begin="arrowRight.mouseover" end="arrowRight.mouseout"/>
                  </use>
                  <path fill="none" stroke="white" stroke-width="1.5" d="M0,-3.0v7 M-2.5,-0.5L0,-3.0L2.5,-0.5"/>
                </g>
                <g id="arrowDown" xlink:href="#dirArrow" transform="rotate(180) translate(-30 -48)" onmousedown="handlePan(0,1)">
                  <use xlink:href="#rim" fill="#404040">
                        <set attributeName="fill" to="#808080" begin="arrowDown.mouseover" end="arrowDown.mouseout"/>
                  </use>
                  <path fill="none" stroke="white" stroke-width="1.5" d="M0,-3.0v7 M-2.5,-0.5L0,-3.0L2.5,-0.5"/>
                </g>
                <g id="arrowLeft" xlink:href="#dirArrow" transform="rotate(270) translate(-36 17)" onmousedown="handlePan(-1,0)">
                  <use xlink:href="#rim" fill="#404040">
                        <set attributeName="fill" to="#808080" begin="arrowLeft.mouseover" end="arrowLeft.mouseout"/>
                  </use>
                  <path fill="none" stroke="white" stroke-width="1.5" d="M0,-3.0v7 M-2.5,-0.5L0,-3.0L2.5,-0.5"/>
                </g>
        </g>
        <svg viewBox="0 0 15 15" width="100%" height="30px" preserveAspectRatio="xMaxYMin meet">
         <g id="arrow_out" transform="scale(0.3 0.3)">
          <a xlink:href="class_problem__inherit__graph_org.svg" target="_base">
           <rect id="button" ry="5" rx="5" y="6" x="6" height="38" width="38"
                fill="#f2f5e9" fill-opacity="0.5" stroke="#606060" stroke-width="1.0"/>
           <path id="arrow"
             d="M 11.500037,31.436501 C 11.940474,20.09759 22.043105,11.32322 32.158766,21.979434 L 37.068811,17.246167 C 37.068811,17.246167 37.088388,32 37.088388,32 L 22.160133,31.978069 C 22.160133,31.978069 26.997745,27.140456 26.997745,27.140456 C 18.528582,18.264221 13.291696,25.230495 11.500037,31.436501 z"
             style="fill:#404040;"/>
          </a>
         </g>
        </svg>
</svg>
