<?xml version="1.0" encoding="UTF-8" standalone="no"?>
<!DOCTYPE svg PUBLIC "-//W3C//DTD SVG 1.1//EN"
 "http://www.w3.org/Graphics/SVG/1.1/DTD/svg11.dtd">
<!-- Generated by graphviz version 2.38.0 (20140413.2041)
 -->
<!-- Title: CompareStacks&lt; T, D &gt; Pages: 1 -->
<svg width="298pt" height="636pt"
 viewBox="0.00 0.00 297.50 636.00" xmlns="http://www.w3.org/2000/svg" xmlns:xlink="http://www.w3.org/1999/xlink">
<g id="graph0" class="graph" transform="scale(1 1) rotate(0) translate(4 632)">
<title>CompareStacks&lt; T, D &gt;</title>
<!-- Node1 -->
<g id="node1" class="node"><title>Node1</title>
<polygon fill="#bfbfbf" stroke="black" points="48.5,-244.5 48.5,-334.5 173.5,-334.5 173.5,-244.5 48.5,-244.5"/>
<text text-anchor="middle" x="111" y="-322.5" font-family="Helvetica,sans-Serif" font-size="10.00">CompareStacks&lt; T, D &gt;</text>
<polyline fill="none" stroke="black" points="48.5,-315.5 173.5,-315.5 "/>
<text text-anchor="middle" x="111" y="-303.5" font-family="Helvetica,sans-Serif" font-size="10.00"> </text>
<polyline fill="none" stroke="black" points="48.5,-296.5 173.5,-296.5 "/>
<text text-anchor="start" x="56.5" y="-284.5" font-family="Helvetica,sans-Serif" font-size="10.00">+ CompareStacks()</text>
<text text-anchor="start" x="56.5" y="-273.5" font-family="Helvetica,sans-Serif" font-size="10.00">+ runCompare()</text>
<text text-anchor="start" x="56.5" y="-262.5" font-family="Helvetica,sans-Serif" font-size="10.00">+ printCompare()</text>
<text text-anchor="start" x="56.5" y="-251.5" font-family="Helvetica,sans-Serif" font-size="10.00">+ readPush()</text>
</g>
<!-- Node3 -->
<g id="node3" class="node"><title>Node3</title>
<g id="a_node3"><a xlink:href="class_compare_stacks.html" target="_top" xlink:title="{CompareStacks\&lt; int,\l int \&gt;\n||+ CompareStacks()\l+ runCompare()\l+ printCompare()\l+ readPush()\l}">
<polygon fill="none" stroke="black" points="0,-95.5 0,-196.5 110,-196.5 110,-95.5 0,-95.5"/>
<text text-anchor="start" x="8" y="-184.5" font-family="Helvetica,sans-Serif" font-size="10.00">CompareStacks&lt; int,</text>
<text text-anchor="middle" x="55" y="-173.5" font-family="Helvetica,sans-Serif" font-size="10.00"> int &gt;</text>
<polyline fill="none" stroke="black" points="0,-166.5 110,-166.5 "/>
<text text-anchor="middle" x="55" y="-154.5" font-family="Helvetica,sans-Serif" font-size="10.00"> </text>
<polyline fill="none" stroke="black" points="0,-147.5 110,-147.5 "/>
<text text-anchor="start" x="8" y="-135.5" font-family="Helvetica,sans-Serif" font-size="10.00">+ CompareStacks()</text>
<text text-anchor="start" x="8" y="-124.5" font-family="Helvetica,sans-Serif" font-size="10.00">+ runCompare()</text>
<text text-anchor="start" x="8" y="-113.5" font-family="Helvetica,sans-Serif" font-size="10.00">+ printCompare()</text>
<text text-anchor="start" x="8" y="-102.5" font-family="Helvetica,sans-Serif" font-size="10.00">+ readPush()</text>
</a>
</g>
</g>
<!-- Node1&#45;&gt;Node3 -->
<g id="edge2" class="edge"><title>Node1&#45;&gt;Node3</title>
<path fill="none" stroke="orange" d="M89.7191,-234.728C84.7695,-222.221 79.5223,-208.962 74.6469,-196.644"/>
<polygon fill="orange" stroke="orange" points="86.5005,-236.106 93.4349,-244.117 93.0093,-233.53 86.5005,-236.106"/>
<text text-anchor="middle" x="109.5" y="-218" font-family="Helvetica,sans-Serif" font-size="10.00"> &lt; int, int &gt;</text>
</g>
<!-- Node5 -->
<g id="node5" class="node"><title>Node5</title>
<g id="a_node5"><a xlink:href="class_compare_stacks.html" target="_top" xlink:title="{CompareStacks\&lt; emptyContext,\l Point2D \&gt;\n||+ CompareStacks()\l+ runCompare()\l+ printCompare()\l+ readPush()\l}">
<polygon fill="none" stroke="black" points="128.5,-95.5 128.5,-196.5 289.5,-196.5 289.5,-95.5 128.5,-95.5"/>
<text text-anchor="start" x="136.5" y="-184.5" font-family="Helvetica,sans-Serif" font-size="10.00">CompareStacks&lt; emptyContext,</text>
<text text-anchor="middle" x="209" y="-173.5" font-family="Helvetica,sans-Serif" font-size="10.00"> Point2D &gt;</text>
<polyline fill="none" stroke="black" points="128.5,-166.5 289.5,-166.5 "/>
<text text-anchor="middle" x="209" y="-154.5" font-family="Helvetica,sans-Serif" font-size="10.00"> </text>
<polyline fill="none" stroke="black" points="128.5,-147.5 289.5,-147.5 "/>
<text text-anchor="start" x="136.5" y="-135.5" font-family="Helvetica,sans-Serif" font-size="10.00">+ CompareStacks()</text>
<text text-anchor="start" x="136.5" y="-124.5" font-family="Helvetica,sans-Serif" font-size="10.00">+ runCompare()</text>
<text text-anchor="start" x="136.5" y="-113.5" font-family="Helvetica,sans-Serif" font-size="10.00">+ printCompare()</text>
<text text-anchor="start" x="136.5" y="-102.5" font-family="Helvetica,sans-Serif" font-size="10.00">+ readPush()</text>
</a>
</g>
</g>
<!-- Node1&#45;&gt;Node5 -->
<g id="edge4" class="edge"><title>Node1&#45;&gt;Node5</title>
<path fill="none" stroke="orange" d="M147.479,-235.829C156.363,-223.002 165.835,-209.325 174.618,-196.644"/>
<polygon fill="orange" stroke="orange" points="144.555,-233.903 141.739,-244.117 150.31,-237.889 144.555,-233.903"/>
<text text-anchor="middle" x="222" y="-218" font-family="Helvetica,sans-Serif" font-size="10.00"> &lt; emptyContext, Point2D &gt;</text>
</g>
<!-- Node2 -->
<g id="node2" class="node"><title>Node2</title>
<g id="a_node2"><a xlink:href="class_problem.html" target="_top" xlink:title="{Problem\&lt; T, D \&gt;\n|# mIndex\l|+ Problem()\l+ ~Problem()\l+ run()\l+ run()\l+ push()\l+ pop()\l+ top()\l+ emptystack()\l+ setContext()\l+ setIndex()\l+ getContext()\l+ getIndex()\l+ toString()\l+ print()\l+ println()\l+ readPush()\l# initStackIntern()\l# readLine()\l# readHeader()\l}">
<polygon fill="none" stroke="black" points="64,-372.5 64,-627.5 158,-627.5 158,-372.5 64,-372.5"/>
<text text-anchor="middle" x="111" y="-615.5" font-family="Helvetica,sans-Serif" font-size="10.00">Problem&lt; T, D &gt;</text>
<polyline fill="none" stroke="black" points="64,-608.5 158,-608.5 "/>
<text text-anchor="start" x="72" y="-596.5" font-family="Helvetica,sans-Serif" font-size="10.00"># mIndex</text>
<polyline fill="none" stroke="black" points="64,-589.5 158,-589.5 "/>
<text text-anchor="start" x="72" y="-577.5" font-family="Helvetica,sans-Serif" font-size="10.00">+ Problem()</text>
<text text-anchor="start" x="72" y="-566.5" font-family="Helvetica,sans-Serif" font-size="10.00">+ ~Problem()</text>
<text text-anchor="start" x="72" y="-555.5" font-family="Helvetica,sans-Serif" font-size="10.00">+ run()</text>
<text text-anchor="start" x="72" y="-544.5" font-family="Helvetica,sans-Serif" font-size="10.00">+ run()</text>
<text text-anchor="start" x="72" y="-533.5" font-family="Helvetica,sans-Serif" font-size="10.00">+ push()</text>
<text text-anchor="start" x="72" y="-522.5" font-family="Helvetica,sans-Serif" font-size="10.00">+ pop()</text>
<text text-anchor="start" x="72" y="-511.5" font-family="Helvetica,sans-Serif" font-size="10.00">+ top()</text>
<text text-anchor="start" x="72" y="-500.5" font-family="Helvetica,sans-Serif" font-size="10.00">+ emptystack()</text>
<text text-anchor="start" x="72" y="-489.5" font-family="Helvetica,sans-Serif" font-size="10.00">+ setContext()</text>
<text text-anchor="start" x="72" y="-478.5" font-family="Helvetica,sans-Serif" font-size="10.00">+ setIndex()</text>
<text text-anchor="start" x="72" y="-467.5" font-family="Helvetica,sans-Serif" font-size="10.00">+ getContext()</text>
<text text-anchor="start" x="72" y="-456.5" font-family="Helvetica,sans-Serif" font-size="10.00">+ getIndex()</text>
<text text-anchor="start" x="72" y="-445.5" font-family="Helvetica,sans-Serif" font-size="10.00">+ toString()</text>
<text text-anchor="start" x="72" y="-434.5" font-family="Helvetica,sans-Serif" font-size="10.00">+ print()</text>
<text text-anchor="start" x="72" y="-423.5" font-family="Helvetica,sans-Serif" font-size="10.00">+ println()</text>
<text text-anchor="start" x="72" y="-412.5" font-family="Helvetica,sans-Serif" font-size="10.00">+ readPush()</text>
<text text-anchor="start" x="72" y="-401.5" font-family="Helvetica,sans-Serif" font-size="10.00"># initStackIntern()</text>
<text text-anchor="start" x="72" y="-390.5" font-family="Helvetica,sans-Serif" font-size="10.00"># readLine()</text>
<text text-anchor="start" x="72" y="-379.5" font-family="Helvetica,sans-Serif" font-size="10.00"># readHeader()</text>
</a>
</g>
</g>
<!-- Node2&#45;&gt;Node1 -->
<g id="edge1" class="edge"><title>Node2&#45;&gt;Node1</title>
<path fill="none" stroke="midnightblue" d="M111,-362.135C111,-352.504 111,-343.285 111,-334.857"/>
<polygon fill="none" stroke="midnightblue" points="107.5,-362.306 111,-372.306 114.5,-362.306 107.5,-362.306"/>
</g>
<!-- Node4 -->
<g id="node4" class="node"><title>Node4</title>
<g id="a_node4"><a xlink:href="class_comparison.html" target="_top" xlink:title="{Comparison\n||+ Comparison()\l}">
<polygon fill="none" stroke="black" points="13,-0.5 13,-57.5 97,-57.5 97,-0.5 13,-0.5"/>
<text text-anchor="middle" x="55" y="-45.5" font-family="Helvetica,sans-Serif" font-size="10.00">Comparison</text>
<polyline fill="none" stroke="black" points="13,-38.5 97,-38.5 "/>
<text text-anchor="middle" x="55" y="-26.5" font-family="Helvetica,sans-Serif" font-size="10.00"> </text>
<polyline fill="none" stroke="black" points="13,-19.5 97,-19.5 "/>
<text text-anchor="start" x="21" y="-7.5" font-family="Helvetica,sans-Serif" font-size="10.00">+ Comparison()</text>
</a>
</g>
</g>
<!-- Node3&#45;&gt;Node4 -->
<g id="edge3" class="edge"><title>Node3&#45;&gt;Node4</title>
<path fill="none" stroke="midnightblue" d="M55,-85.2151C55,-75.5929 55,-66.0561 55,-57.6848"/>
<polygon fill="none" stroke="midnightblue" points="51.5001,-85.2281 55,-95.2282 58.5001,-85.2282 51.5001,-85.2281"/>
</g>
<!-- Node6 -->
<g id="node6" class="node"><title>Node6</title>
<g id="a_node6"><a xlink:href="classcomparison_convex_hull.html" target="_top" xlink:title="{comparisonConvexHull\n||+ comparisonConvexHull()\l}">
<polygon fill="none" stroke="black" points="142.5,-0.5 142.5,-57.5 275.5,-57.5 275.5,-0.5 142.5,-0.5"/>
<text text-anchor="middle" x="209" y="-45.5" font-family="Helvetica,sans-Serif" font-size="10.00">comparisonConvexHull</text>
<polyline fill="none" stroke="black" points="142.5,-38.5 275.5,-38.5 "/>
<text text-anchor="middle" x="209" y="-26.5" font-family="Helvetica,sans-Serif" font-size="10.00"> </text>
<polyline fill="none" stroke="black" points="142.5,-19.5 275.5,-19.5 "/>
<text text-anchor="start" x="150.5" y="-7.5" font-family="Helvetica,sans-Serif" font-size="10.00">+ comparisonConvexHull()</text>
</a>
</g>
</g>
<!-- Node5&#45;&gt;Node6 -->
<g id="edge5" class="edge"><title>Node5&#45;&gt;Node6</title>
<path fill="none" stroke="midnightblue" d="M209,-85.2151C209,-75.5929 209,-66.0561 209,-57.6848"/>
<polygon fill="none" stroke="midnightblue" points="205.5,-85.2281 209,-95.2282 212.5,-85.2282 205.5,-85.2281"/>
</g>
</g>
</svg>
