<?xml version="1.0" encoding="UTF-8" standalone="no"?>
<!DOCTYPE svg PUBLIC "-//W3C//DTD SVG 1.1//EN"
 "http://www.w3.org/Graphics/SVG/1.1/DTD/svg11.dtd">
<!-- Generated by graphviz version 2.38.0 (20140413.2041)
 -->
<!-- Title: CompareStacks&lt; T, D &gt; Pages: 1 -->
<!--zoomable 636 -->
<svg id="main" version="1.1" xmlns="http://www.w3.org/2000/svg" xmlns:xlink="http://www.w3.org/1999/xlink" xml:space="preserve" onload="init(evt)">
<style type="text/css"><![CDATA[
.edge:hover path { stroke: red; }
.edge:hover polygon { stroke: red; fill: red; }
]]></style>
<script type="text/javascript"><![CDATA[
var edges = document.getElementsByTagName('g');
if (edges && edges.length) {
  for (var i=0;i<edges.length;i++) {
    if (edges[i].id.substr(0,4)=='edge') {
      edges[i].setAttribute('class','edge');
    }
  }
}
]]></script>
        <defs>
                <circle id="rim" cx="0" cy="0" r="7"/>
                <circle id="rim2" cx="0" cy="0" r="3.5"/>
                <g id="zoomPlus">
                        <use xlink:href="#rim" fill="#404040">
                                <set attributeName="fill" to="#808080" begin="zoomplus.mouseover" end="zoomplus.mouseout"/>
                        </use>
                        <path d="M-4,0h8M0,-4v8" fill="none" stroke="white" stroke-width="1.5" pointer-events="none"/>
                </g>
                <g id="zoomMin">
                        <use xlink:href="#rim" fill="#404040">
                                <set attributeName="fill" to="#808080" begin="zoomminus.mouseover" end="zoomminus.mouseout"/>
                        </use>
                        <path d="M-4,0h8" fill="none" stroke="white" stroke-width="1.5" pointer-events="none"/>
                </g>
                <g id="dirArrow">
                        <path fill="none" stroke="white" stroke-width="1.5" d="M0,-3.0v7 M-2.5,-0.5L0,-3.0L2.5,-0.5"/>
                </g>
               <g id="resetDef">
                       <use xlink:href="#rim2" fill="#404040">
                               <set attributeName="fill" to="#808080" begin="reset.mouseover" end="reset.mouseout"/>
                       </use>
               </g>
        </defs>

<script type="text/javascript">
var viewWidth = 298;
var viewHeight = 636;
var sectionId = 'dynsection-0';
</script>
<script xlink:href="svgpan.js"/>
<svg id="graph" class="graph">
<g id="viewport">
<title>CompareStacks&lt; T, D &gt;</title>
<!-- Node1 -->
<g id="node1" class="node"><title>Node1</title>
<polygon fill="#bfbfbf" stroke="black" points="48.5,-244.5 48.5,-334.5 173.5,-334.5 173.5,-244.5 48.5,-244.5"/>
<text text-anchor="middle" x="111" y="-322.5" font-family="Helvetica,sans-Serif" font-size="10.00">CompareStacks&lt; T, D &gt;</text>
<polyline fill="none" stroke="black" points="48.5,-315.5 173.5,-315.5 "/>
<text text-anchor="middle" x="111" y="-303.5" font-family="Helvetica,sans-Serif" font-size="10.00"> </text>
<polyline fill="none" stroke="black" points="48.5,-296.5 173.5,-296.5 "/>
<text text-anchor="start" x="56.5" y="-284.5" font-family="Helvetica,sans-Serif" font-size="10.00">+ CompareStacks()</text>
<text text-anchor="start" x="56.5" y="-273.5" font-family="Helvetica,sans-Serif" font-size="10.00">+ runCompare()</text>
<text text-anchor="start" x="56.5" y="-262.5" font-family="Helvetica,sans-Serif" font-size="10.00">+ printCompare()</text>
<text text-anchor="start" x="56.5" y="-251.5" font-family="Helvetica,sans-Serif" font-size="10.00">+ readPush()</text>
</g>
<!-- Node3 -->
<g id="node3" class="node"><title>Node3</title>
<g id="a_node3"><a xlink:href="class_compare_stacks.html" target="_top" xlink:title="{CompareStacks\&lt; int,\l int \&gt;\n||+ CompareStacks()\l+ runCompare()\l+ printCompare()\l+ readPush()\l}">
<polygon fill="none" stroke="black" points="0,-95.5 0,-196.5 110,-196.5 110,-95.5 0,-95.5"/>
<text text-anchor="start" x="8" y="-184.5" font-family="Helvetica,sans-Serif" font-size="10.00">CompareStacks&lt; int,</text>
<text text-anchor="middle" x="55" y="-173.5" font-family="Helvetica,sans-Serif" font-size="10.00"> int &gt;</text>
<polyline fill="none" stroke="black" points="0,-166.5 110,-166.5 "/>
<text text-anchor="middle" x="55" y="-154.5" font-family="Helvetica,sans-Serif" font-size="10.00"> </text>
<polyline fill="none" stroke="black" points="0,-147.5 110,-147.5 "/>
<text text-anchor="start" x="8" y="-135.5" font-family="Helvetica,sans-Serif" font-size="10.00">+ CompareStacks()</text>
<text text-anchor="start" x="8" y="-124.5" font-family="Helvetica,sans-Serif" font-size="10.00">+ runCompare()</text>
<text text-anchor="start" x="8" y="-113.5" font-family="Helvetica,sans-Serif" font-size="10.00">+ printCompare()</text>
<text text-anchor="start" x="8" y="-102.5" font-family="Helvetica,sans-Serif" font-size="10.00">+ readPush()</text>
</a>
</g>
</g>
<!-- Node1&#45;&gt;Node3 -->
<g id="edge2" class="edge"><title>Node1&#45;&gt;Node3</title>
<path fill="none" stroke="orange" d="M89.7191,-234.728C84.7695,-222.221 79.5223,-208.962 74.6469,-196.644"/>
<polygon fill="orange" stroke="orange" points="86.5005,-236.106 93.4349,-244.117 93.0093,-233.53 86.5005,-236.106"/>
<text text-anchor="middle" x="109.5" y="-218" font-family="Helvetica,sans-Serif" font-size="10.00"> &lt; int, int &gt;</text>
</g>
<!-- Node5 -->
<g id="node5" class="node"><title>Node5</title>
<g id="a_node5"><a xlink:href="class_compare_stacks.html" target="_top" xlink:title="{CompareStacks\&lt; emptyContext,\l Point2D \&gt;\n||+ CompareStacks()\l+ runCompare()\l+ printCompare()\l+ readPush()\l}">
<polygon fill="none" stroke="black" points="128.5,-95.5 128.5,-196.5 289.5,-196.5 289.5,-95.5 128.5,-95.5"/>
<text text-anchor="start" x="136.5" y="-184.5" font-family="Helvetica,sans-Serif" font-size="10.00">CompareStacks&lt; emptyContext,</text>
<text text-anchor="middle" x="209" y="-173.5" font-family="Helvetica,sans-Serif" font-size="10.00"> Point2D &gt;</text>
<polyline fill="none" stroke="black" points="128.5,-166.5 289.5,-166.5 "/>
<text text-anchor="middle" x="209" y="-154.5" font-family="Helvetica,sans-Serif" font-size="10.00"> </text>
<polyline fill="none" stroke="black" points="128.5,-147.5 289.5,-147.5 "/>
<text text-anchor="start" x="136.5" y="-135.5" font-family="Helvetica,sans-Serif" font-size="10.00">+ CompareStacks()</text>
<text text-anchor="start" x="136.5" y="-124.5" font-family="Helvetica,sans-Serif" font-size="10.00">+ runCompare()</text>
<text text-anchor="start" x="136.5" y="-113.5" font-family="Helvetica,sans-Serif" font-size="10.00">+ printCompare()</text>
<text text-anchor="start" x="136.5" y="-102.5" font-family="Helvetica,sans-Serif" font-size="10.00">+ readPush()</text>
</a>
</g>
</g>
<!-- Node1&#45;&gt;Node5 -->
<g id="edge4" class="edge"><title>Node1&#45;&gt;Node5</title>
<path fill="none" stroke="orange" d="M147.479,-235.829C156.363,-223.002 165.835,-209.325 174.618,-196.644"/>
<polygon fill="orange" stroke="orange" points="144.555,-233.903 141.739,-244.117 150.31,-237.889 144.555,-233.903"/>
<text text-anchor="middle" x="222" y="-218" font-family="Helvetica,sans-Serif" font-size="10.00"> &lt; emptyContext, Point2D &gt;</text>
</g>
<!-- Node2 -->
<g id="node2" class="node"><title>Node2</title>
<g id="a_node2"><a xlink:href="class_problem.html" target="_top" xlink:title="{Problem\&lt; T, D \&gt;\n|# mIndex\l|+ Problem()\l+ ~Problem()\l+ run()\l+ run()\l+ push()\l+ pop()\l+ top()\l+ emptystack()\l+ setContext()\l+ setIndex()\l+ getContext()\l+ getIndex()\l+ toString()\l+ print()\l+ println()\l+ readPush()\l# initStackIntern()\l# readLine()\l# readHeader()\l}">
<polygon fill="none" stroke="black" points="64,-372.5 64,-627.5 158,-627.5 158,-372.5 64,-372.5"/>
<text text-anchor="middle" x="111" y="-615.5" font-family="Helvetica,sans-Serif" font-size="10.00">Problem&lt; T, D &gt;</text>
<polyline fill="none" stroke="black" points="64,-608.5 158,-608.5 "/>
<text text-anchor="start" x="72" y="-596.5" font-family="Helvetica,sans-Serif" font-size="10.00"># mIndex</text>
<polyline fill="none" stroke="black" points="64,-589.5 158,-589.5 "/>
<text text-anchor="start" x="72" y="-577.5" font-family="Helvetica,sans-Serif" font-size="10.00">+ Problem()</text>
<text text-anchor="start" x="72" y="-566.5" font-family="Helvetica,sans-Serif" font-size="10.00">+ ~Problem()</text>
<text text-anchor="start" x="72" y="-555.5" font-family="Helvetica,sans-Serif" font-size="10.00">+ run()</text>
<text text-anchor="start" x="72" y="-544.5" font-family="Helvetica,sans-Serif" font-size="10.00">+ run()</text>
<text text-anchor="start" x="72" y="-533.5" font-family="Helvetica,sans-Serif" font-size="10.00">+ push()</text>
<text text-anchor="start" x="72" y="-522.5" font-family="Helvetica,sans-Serif" font-size="10.00">+ pop()</text>
<text text-anchor="start" x="72" y="-511.5" font-family="Helvetica,sans-Serif" font-size="10.00">+ top()</text>
<text text-anchor="start" x="72" y="-500.5" font-family="Helvetica,sans-Serif" font-size="10.00">+ emptystack()</text>
<text text-anchor="start" x="72" y="-489.5" font-family="Helvetica,sans-Serif" font-size="10.00">+ setContext()</text>
<text text-anchor="start" x="72" y="-478.5" font-family="Helvetica,sans-Serif" font-size="10.00">+ setIndex()</text>
<text text-anchor="start" x="72" y="-467.5" font-family="Helvetica,sans-Serif" font-size="10.00">+ getContext()</text>
<text text-anchor="start" x="72" y="-456.5" font-family="Helvetica,sans-Serif" font-size="10.00">+ getIndex()</text>
<text text-anchor="start" x="72" y="-445.5" font-family="Helvetica,sans-Serif" font-size="10.00">+ toString()</text>
<text text-anchor="start" x="72" y="-434.5" font-family="Helvetica,sans-Serif" font-size="10.00">+ print()</text>
<text text-anchor="start" x="72" y="-423.5" font-family="Helvetica,sans-Serif" font-size="10.00">+ println()</text>
<text text-anchor="start" x="72" y="-412.5" font-family="Helvetica,sans-Serif" font-size="10.00">+ readPush()</text>
<text text-anchor="start" x="72" y="-401.5" font-family="Helvetica,sans-Serif" font-size="10.00"># initStackIntern()</text>
<text text-anchor="start" x="72" y="-390.5" font-family="Helvetica,sans-Serif" font-size="10.00"># readLine()</text>
<text text-anchor="start" x="72" y="-379.5" font-family="Helvetica,sans-Serif" font-size="10.00"># readHeader()</text>
</a>
</g>
</g>
<!-- Node2&#45;&gt;Node1 -->
<g id="edge1" class="edge"><title>Node2&#45;&gt;Node1</title>
<path fill="none" stroke="midnightblue" d="M111,-362.135C111,-352.504 111,-343.285 111,-334.857"/>
<polygon fill="none" stroke="midnightblue" points="107.5,-362.306 111,-372.306 114.5,-362.306 107.5,-362.306"/>
</g>
<!-- Node4 -->
<g id="node4" class="node"><title>Node4</title>
<g id="a_node4"><a xlink:href="class_comparison.html" target="_top" xlink:title="{Comparison\n||+ Comparison()\l}">
<polygon fill="none" stroke="black" points="13,-0.5 13,-57.5 97,-57.5 97,-0.5 13,-0.5"/>
<text text-anchor="middle" x="55" y="-45.5" font-family="Helvetica,sans-Serif" font-size="10.00">Comparison</text>
<polyline fill="none" stroke="black" points="13,-38.5 97,-38.5 "/>
<text text-anchor="middle" x="55" y="-26.5" font-family="Helvetica,sans-Serif" font-size="10.00"> </text>
<polyline fill="none" stroke="black" points="13,-19.5 97,-19.5 "/>
<text text-anchor="start" x="21" y="-7.5" font-family="Helvetica,sans-Serif" font-size="10.00">+ Comparison()</text>
</a>
</g>
</g>
<!-- Node3&#45;&gt;Node4 -->
<g id="edge3" class="edge"><title>Node3&#45;&gt;Node4</title>
<path fill="none" stroke="midnightblue" d="M55,-85.2151C55,-75.5929 55,-66.0561 55,-57.6848"/>
<polygon fill="none" stroke="midnightblue" points="51.5001,-85.2281 55,-95.2282 58.5001,-85.2282 51.5001,-85.2281"/>
</g>
<!-- Node6 -->
<g id="node6" class="node"><title>Node6</title>
<g id="a_node6"><a xlink:href="classcomparison_convex_hull.html" target="_top" xlink:title="{comparisonConvexHull\n||+ comparisonConvexHull()\l}">
<polygon fill="none" stroke="black" points="142.5,-0.5 142.5,-57.5 275.5,-57.5 275.5,-0.5 142.5,-0.5"/>
<text text-anchor="middle" x="209" y="-45.5" font-family="Helvetica,sans-Serif" font-size="10.00">comparisonConvexHull</text>
<polyline fill="none" stroke="black" points="142.5,-38.5 275.5,-38.5 "/>
<text text-anchor="middle" x="209" y="-26.5" font-family="Helvetica,sans-Serif" font-size="10.00"> </text>
<polyline fill="none" stroke="black" points="142.5,-19.5 275.5,-19.5 "/>
<text text-anchor="start" x="150.5" y="-7.5" font-family="Helvetica,sans-Serif" font-size="10.00">+ comparisonConvexHull()</text>
</a>
</g>
</g>
<!-- Node5&#45;&gt;Node6 -->
<g id="edge5" class="edge"><title>Node5&#45;&gt;Node6</title>
<path fill="none" stroke="midnightblue" d="M209,-85.2151C209,-75.5929 209,-66.0561 209,-57.6848"/>
<polygon fill="none" stroke="midnightblue" points="205.5,-85.2281 209,-95.2282 212.5,-85.2282 205.5,-85.2281"/>
</g>
</g>
</svg>
        <g id="navigator" transform="translate(0 0)" fill="#404254">
                <rect fill="#f2f5e9" fill-opacity="0.5" stroke="#606060" stroke-width=".5" x="0" y="0" width="60" height="60"/>
                <use id="zoomplus" xlink:href="#zoomPlus" x="17" y="9" onmousedown="handleZoom(evt,'in')"/>
                <use id="zoomminus" xlink:href="#zoomMin" x="42" y="9" onmousedown="handleZoom(evt,'out')"/>
                <use id="reset" xlink:href="#resetDef" x="30" y="36" onmousedown="handleReset()"/>
                <g id="arrowUp" xlink:href="#dirArrow" transform="translate(30 24)" onmousedown="handlePan(0,-1)">
                  <use xlink:href="#rim" fill="#404040">
                        <set attributeName="fill" to="#808080" begin="arrowUp.mouseover" end="arrowUp.mouseout"/>
                  </use>
                  <path fill="none" stroke="white" stroke-width="1.5" d="M0,-3.0v7 M-2.5,-0.5L0,-3.0L2.5,-0.5"/>
                </g>
                <g id="arrowRight" xlink:href="#dirArrow" transform="rotate(90) translate(36 -43)" onmousedown="handlePan(1,0)">
                  <use xlink:href="#rim" fill="#404040">
                        <set attributeName="fill" to="#808080" begin="arrowRight.mouseover" end="arrowRight.mouseout"/>
                  </use>
                  <path fill="none" stroke="white" stroke-width="1.5" d="M0,-3.0v7 M-2.5,-0.5L0,-3.0L2.5,-0.5"/>
                </g>
                <g id="arrowDown" xlink:href="#dirArrow" transform="rotate(180) translate(-30 -48)" onmousedown="handlePan(0,1)">
                  <use xlink:href="#rim" fill="#404040">
                        <set attributeName="fill" to="#808080" begin="arrowDown.mouseover" end="arrowDown.mouseout"/>
                  </use>
                  <path fill="none" stroke="white" stroke-width="1.5" d="M0,-3.0v7 M-2.5,-0.5L0,-3.0L2.5,-0.5"/>
                </g>
                <g id="arrowLeft" xlink:href="#dirArrow" transform="rotate(270) translate(-36 17)" onmousedown="handlePan(-1,0)">
                  <use xlink:href="#rim" fill="#404040">
                        <set attributeName="fill" to="#808080" begin="arrowLeft.mouseover" end="arrowLeft.mouseout"/>
                  </use>
                  <path fill="none" stroke="white" stroke-width="1.5" d="M0,-3.0v7 M-2.5,-0.5L0,-3.0L2.5,-0.5"/>
                </g>
        </g>
        <svg viewBox="0 0 15 15" width="100%" height="30px" preserveAspectRatio="xMaxYMin meet">
         <g id="arrow_out" transform="scale(0.3 0.3)">
          <a xlink:href="class_compare_stacks__inherit__graph_org.svg" target="_base">
           <rect id="button" ry="5" rx="5" y="6" x="6" height="38" width="38"
                fill="#f2f5e9" fill-opacity="0.5" stroke="#606060" stroke-width="1.0"/>
           <path id="arrow"
             d="M 11.500037,31.436501 C 11.940474,20.09759 22.043105,11.32322 32.158766,21.979434 L 37.068811,17.246167 C 37.068811,17.246167 37.088388,32 37.088388,32 L 22.160133,31.978069 C 22.160133,31.978069 26.997745,27.140456 26.997745,27.140456 C 18.528582,18.264221 13.291696,25.230495 11.500037,31.436501 z"
             style="fill:#404040;"/>
          </a>
         </g>
        </svg>
</svg>
