<?xml version="1.0" encoding="UTF-8" standalone="no"?>
<!DOCTYPE svg PUBLIC "-//W3C//DTD SVG 1.1//EN"
 "http://www.w3.org/Graphics/SVG/1.1/DTD/svg11.dtd">
<!-- Generated by graphviz version 2.38.0 (20140413.2041)
 -->
<!-- Title: Stack&lt; T, D &gt; Pages: 1 -->
<svg width="272pt" height="369pt"
 viewBox="0.00 0.00 272.00 369.00" xmlns="http://www.w3.org/2000/svg" xmlns:xlink="http://www.w3.org/1999/xlink">
<g id="graph0" class="graph" transform="scale(1 1) rotate(0) translate(4 365)">
<title>Stack&lt; T, D &gt;</title>
<!-- Node1 -->
<g id="node1" class="node"><title>Node1</title>
<polygon fill="#bfbfbf" stroke="black" points="87,-138.5 87,-360.5 188,-360.5 188,-138.5 87,-138.5"/>
<text text-anchor="middle" x="137.5" y="-348.5" font-family="Helvetica,sans-Serif" font-size="10.00">Stack&lt; T, D &gt;</text>
<polyline fill="none" stroke="black" points="87,-341.5 188,-341.5 "/>
<text text-anchor="middle" x="137.5" y="-329.5" font-family="Helvetica,sans-Serif" font-size="10.00"> </text>
<polyline fill="none" stroke="black" points="87,-322.5 188,-322.5 "/>
<text text-anchor="start" x="95" y="-310.5" font-family="Helvetica,sans-Serif" font-size="10.00">+ ~Stack()</text>
<text text-anchor="start" x="95" y="-299.5" font-family="Helvetica,sans-Serif" font-size="10.00">+ pop()</text>
<text text-anchor="start" x="95" y="-288.5" font-family="Helvetica,sans-Serif" font-size="10.00">+ push()</text>
<text text-anchor="start" x="95" y="-277.5" font-family="Helvetica,sans-Serif" font-size="10.00">+ top()</text>
<text text-anchor="start" x="95" y="-266.5" font-family="Helvetica,sans-Serif" font-size="10.00">+ empty()</text>
<text text-anchor="start" x="95" y="-255.5" font-family="Helvetica,sans-Serif" font-size="10.00">+ compress()</text>
<text text-anchor="start" x="95" y="-244.5" font-family="Helvetica,sans-Serif" font-size="10.00">+ copyContent()</text>
<text text-anchor="start" x="95" y="-233.5" font-family="Helvetica,sans-Serif" font-size="10.00">+ getFirstPartial()</text>
<text text-anchor="start" x="95" y="-222.5" font-family="Helvetica,sans-Serif" font-size="10.00">+ getCompressed()</text>
<text text-anchor="start" x="95" y="-211.5" font-family="Helvetica,sans-Serif" font-size="10.00">+ getFirstExplicit()</text>
<text text-anchor="start" x="95" y="-200.5" font-family="Helvetica,sans-Serif" font-size="10.00">+ getFirstSign()</text>
<text text-anchor="start" x="95" y="-189.5" font-family="Helvetica,sans-Serif" font-size="10.00">+ getBufferSize()</text>
<text text-anchor="start" x="95" y="-178.5" font-family="Helvetica,sans-Serif" font-size="10.00">+ setContext()</text>
<text text-anchor="start" x="95" y="-167.5" font-family="Helvetica,sans-Serif" font-size="10.00">+ setPosition()</text>
<text text-anchor="start" x="95" y="-156.5" font-family="Helvetica,sans-Serif" font-size="10.00">+ setCompressed()</text>
<text text-anchor="start" x="95" y="-145.5" font-family="Helvetica,sans-Serif" font-size="10.00">+ toString()</text>
</g>
<!-- Node2 -->
<g id="node2" class="node"><title>Node2</title>
<g id="a_node2"><a xlink:href="class_compressed_stack.html" target="_top" xlink:title="{CompressedStack\&lt; T, D \&gt;\n|# mFirst\l# mSecond\l# mCompressed\l# mBuffer\l|+ CompressedStack()\l+ CompressedStack()\l}">
<polygon fill="none" stroke="black" points="0,-0.5 0,-101.5 135,-101.5 135,-0.5 0,-0.5"/>
<text text-anchor="middle" x="67.5" y="-89.5" font-family="Helvetica,sans-Serif" font-size="10.00">CompressedStack&lt; T, D &gt;</text>
<polyline fill="none" stroke="black" points="0,-82.5 135,-82.5 "/>
<text text-anchor="start" x="8" y="-70.5" font-family="Helvetica,sans-Serif" font-size="10.00"># mFirst</text>
<text text-anchor="start" x="8" y="-59.5" font-family="Helvetica,sans-Serif" font-size="10.00"># mSecond</text>
<text text-anchor="start" x="8" y="-48.5" font-family="Helvetica,sans-Serif" font-size="10.00"># mCompressed</text>
<text text-anchor="start" x="8" y="-37.5" font-family="Helvetica,sans-Serif" font-size="10.00"># mBuffer</text>
<polyline fill="none" stroke="black" points="0,-30.5 135,-30.5 "/>
<text text-anchor="start" x="8" y="-18.5" font-family="Helvetica,sans-Serif" font-size="10.00">+ CompressedStack()</text>
<text text-anchor="start" x="8" y="-7.5" font-family="Helvetica,sans-Serif" font-size="10.00">+ CompressedStack()</text>
</a>
</g>
</g>
<!-- Node1&#45;&gt;Node2 -->
<g id="edge1" class="edge"><title>Node1&#45;&gt;Node2</title>
<path fill="none" stroke="midnightblue" d="M94.907,-128.935C91.5371,-119.476 88.2658,-110.293 85.2265,-101.761"/>
<polygon fill="none" stroke="midnightblue" points="91.652,-130.228 98.3049,-138.474 98.2461,-127.879 91.652,-130.228"/>
</g>
<!-- Node3 -->
<g id="node3" class="node"><title>Node3</title>
<g id="a_node3"><a xlink:href="class_normal_stack.html" target="_top" xlink:title="{NormalStack\&lt; T, D \&gt;\n||+ NormalStack()\l+ toString()\l}">
<polygon fill="none" stroke="black" points="153,-17 153,-85 264,-85 264,-17 153,-17"/>
<text text-anchor="middle" x="208.5" y="-73" font-family="Helvetica,sans-Serif" font-size="10.00">NormalStack&lt; T, D &gt;</text>
<polyline fill="none" stroke="black" points="153,-66 264,-66 "/>
<text text-anchor="middle" x="208.5" y="-54" font-family="Helvetica,sans-Serif" font-size="10.00"> </text>
<polyline fill="none" stroke="black" points="153,-47 264,-47 "/>
<text text-anchor="start" x="161" y="-35" font-family="Helvetica,sans-Serif" font-size="10.00">+ NormalStack()</text>
<text text-anchor="start" x="161" y="-24" font-family="Helvetica,sans-Serif" font-size="10.00">+ toString()</text>
</a>
</g>
</g>
<!-- Node1&#45;&gt;Node3 -->
<g id="edge2" class="edge"><title>Node1&#45;&gt;Node3</title>
<path fill="none" stroke="midnightblue" d="M180.694,-128.956C186.487,-112.923 191.993,-97.6844 196.554,-85.0619"/>
<polygon fill="none" stroke="midnightblue" points="177.362,-127.879 177.255,-138.474 183.945,-130.258 177.362,-127.879"/>
</g>
</g>
</svg>
