<?xml version="1.0" encoding="UTF-8" standalone="no"?>
<!DOCTYPE svg PUBLIC "-//W3C//DTD SVG 1.1//EN"
 "http://www.w3.org/Graphics/SVG/1.1/DTD/svg11.dtd">
<!-- Generated by graphviz version 2.38.0 (20140413.2041)
 -->
<!-- Title: comparisonConvexHull Pages: 1 -->
<svg width="278pt" height="822pt"
 viewBox="0.00 0.00 277.50 822.00" xmlns="http://www.w3.org/2000/svg" xmlns:xlink="http://www.w3.org/1999/xlink">
<g id="graph0" class="graph" transform="scale(1 1) rotate(0) translate(4 818)">
<title>comparisonConvexHull</title>
<!-- Node1 -->
<g id="node1" class="node"><title>Node1</title>
<polygon fill="#bfbfbf" stroke="black" points="40.5,-0.5 40.5,-57.5 173.5,-57.5 173.5,-0.5 40.5,-0.5"/>
<text text-anchor="middle" x="107" y="-45.5" font-family="Helvetica,sans-Serif" font-size="10.00">comparisonConvexHull</text>
<polyline fill="none" stroke="black" points="40.5,-38.5 173.5,-38.5 "/>
<text text-anchor="middle" x="107" y="-26.5" font-family="Helvetica,sans-Serif" font-size="10.00"> </text>
<polyline fill="none" stroke="black" points="40.5,-19.5 173.5,-19.5 "/>
<text text-anchor="start" x="48.5" y="-7.5" font-family="Helvetica,sans-Serif" font-size="10.00">+ comparisonConvexHull()</text>
</g>
<!-- Node2 -->
<g id="node2" class="node"><title>Node2</title>
<g id="a_node2"><a xlink:href="class_compare_stacks.html" target="_top" xlink:title="{CompareStacks\&lt; emptyContext,\l Point2D \&gt;\n||+ CompareStacks()\l+ runCompare()\l+ printCompare()\l+ readPush()\l}">
<polygon fill="none" stroke="black" points="26.5,-95.5 26.5,-196.5 187.5,-196.5 187.5,-95.5 26.5,-95.5"/>
<text text-anchor="start" x="34.5" y="-184.5" font-family="Helvetica,sans-Serif" font-size="10.00">CompareStacks&lt; emptyContext,</text>
<text text-anchor="middle" x="107" y="-173.5" font-family="Helvetica,sans-Serif" font-size="10.00"> Point2D &gt;</text>
<polyline fill="none" stroke="black" points="26.5,-166.5 187.5,-166.5 "/>
<text text-anchor="middle" x="107" y="-154.5" font-family="Helvetica,sans-Serif" font-size="10.00"> </text>
<polyline fill="none" stroke="black" points="26.5,-147.5 187.5,-147.5 "/>
<text text-anchor="start" x="34.5" y="-135.5" font-family="Helvetica,sans-Serif" font-size="10.00">+ CompareStacks()</text>
<text text-anchor="start" x="34.5" y="-124.5" font-family="Helvetica,sans-Serif" font-size="10.00">+ runCompare()</text>
<text text-anchor="start" x="34.5" y="-113.5" font-family="Helvetica,sans-Serif" font-size="10.00">+ printCompare()</text>
<text text-anchor="start" x="34.5" y="-102.5" font-family="Helvetica,sans-Serif" font-size="10.00">+ readPush()</text>
</a>
</g>
</g>
<!-- Node2&#45;&gt;Node1 -->
<g id="edge1" class="edge"><title>Node2&#45;&gt;Node1</title>
<path fill="none" stroke="midnightblue" d="M107,-85.2151C107,-75.5929 107,-66.0561 107,-57.6848"/>
<polygon fill="none" stroke="midnightblue" points="103.5,-85.2281 107,-95.2282 110.5,-85.2282 103.5,-85.2281"/>
</g>
<!-- Node3 -->
<g id="node3" class="node"><title>Node3</title>
<g id="a_node3"><a xlink:href="class_problem.html" target="_top" xlink:title="{Problem\&lt; emptyContext,\l Point2D \&gt;\n|# mIndex\l|+ Problem()\l+ ~Problem()\l+ run()\l+ run()\l+ push()\l+ pop()\l+ top()\l+ emptystack()\l+ setContext()\l+ setIndex()\l+ getContext()\l+ getIndex()\l+ toString()\l+ print()\l+ println()\l+ readPush()\l# initStackIntern()\l# readLine()\l# readHeader()\l}">
<polygon fill="none" stroke="black" points="0,-244.5 0,-510.5 126,-510.5 126,-244.5 0,-244.5"/>
<text text-anchor="start" x="8" y="-498.5" font-family="Helvetica,sans-Serif" font-size="10.00">Problem&lt; emptyContext,</text>
<text text-anchor="middle" x="63" y="-487.5" font-family="Helvetica,sans-Serif" font-size="10.00"> Point2D &gt;</text>
<polyline fill="none" stroke="black" points="0,-480.5 126,-480.5 "/>
<text text-anchor="start" x="8" y="-468.5" font-family="Helvetica,sans-Serif" font-size="10.00"># mIndex</text>
<polyline fill="none" stroke="black" points="0,-461.5 126,-461.5 "/>
<text text-anchor="start" x="8" y="-449.5" font-family="Helvetica,sans-Serif" font-size="10.00">+ Problem()</text>
<text text-anchor="start" x="8" y="-438.5" font-family="Helvetica,sans-Serif" font-size="10.00">+ ~Problem()</text>
<text text-anchor="start" x="8" y="-427.5" font-family="Helvetica,sans-Serif" font-size="10.00">+ run()</text>
<text text-anchor="start" x="8" y="-416.5" font-family="Helvetica,sans-Serif" font-size="10.00">+ run()</text>
<text text-anchor="start" x="8" y="-405.5" font-family="Helvetica,sans-Serif" font-size="10.00">+ push()</text>
<text text-anchor="start" x="8" y="-394.5" font-family="Helvetica,sans-Serif" font-size="10.00">+ pop()</text>
<text text-anchor="start" x="8" y="-383.5" font-family="Helvetica,sans-Serif" font-size="10.00">+ top()</text>
<text text-anchor="start" x="8" y="-372.5" font-family="Helvetica,sans-Serif" font-size="10.00">+ emptystack()</text>
<text text-anchor="start" x="8" y="-361.5" font-family="Helvetica,sans-Serif" font-size="10.00">+ setContext()</text>
<text text-anchor="start" x="8" y="-350.5" font-family="Helvetica,sans-Serif" font-size="10.00">+ setIndex()</text>
<text text-anchor="start" x="8" y="-339.5" font-family="Helvetica,sans-Serif" font-size="10.00">+ getContext()</text>
<text text-anchor="start" x="8" y="-328.5" font-family="Helvetica,sans-Serif" font-size="10.00">+ getIndex()</text>
<text text-anchor="start" x="8" y="-317.5" font-family="Helvetica,sans-Serif" font-size="10.00">+ toString()</text>
<text text-anchor="start" x="8" y="-306.5" font-family="Helvetica,sans-Serif" font-size="10.00">+ print()</text>
<text text-anchor="start" x="8" y="-295.5" font-family="Helvetica,sans-Serif" font-size="10.00">+ println()</text>
<text text-anchor="start" x="8" y="-284.5" font-family="Helvetica,sans-Serif" font-size="10.00">+ readPush()</text>
<text text-anchor="start" x="8" y="-273.5" font-family="Helvetica,sans-Serif" font-size="10.00"># initStackIntern()</text>
<text text-anchor="start" x="8" y="-262.5" font-family="Helvetica,sans-Serif" font-size="10.00"># readLine()</text>
<text text-anchor="start" x="8" y="-251.5" font-family="Helvetica,sans-Serif" font-size="10.00"># readHeader()</text>
</a>
</g>
</g>
<!-- Node3&#45;&gt;Node2 -->
<g id="edge2" class="edge"><title>Node3&#45;&gt;Node2</title>
<path fill="none" stroke="midnightblue" d="M90.2294,-234.474C92.8024,-221.053 95.2742,-208.161 97.4924,-196.591"/>
<polygon fill="none" stroke="midnightblue" points="86.7856,-233.848 88.34,-244.329 93.6604,-235.167 86.7856,-233.848"/>
</g>
<!-- Node4 -->
<g id="node4" class="node"><title>Node4</title>
<g id="a_node4"><a xlink:href="class_problem.html" target="_top" xlink:title="{Problem\&lt; T, D \&gt;\n|# mIndex\l|+ Problem()\l+ ~Problem()\l+ run()\l+ run()\l+ push()\l+ pop()\l+ top()\l+ emptystack()\l+ setContext()\l+ setIndex()\l+ getContext()\l+ getIndex()\l+ toString()\l+ print()\l+ println()\l+ readPush()\l# initStackIntern()\l# readLine()\l# readHeader()\l}">
<polygon fill="none" stroke="black" points="88,-558.5 88,-813.5 182,-813.5 182,-558.5 88,-558.5"/>
<text text-anchor="middle" x="135" y="-801.5" font-family="Helvetica,sans-Serif" font-size="10.00">Problem&lt; T, D &gt;</text>
<polyline fill="none" stroke="black" points="88,-794.5 182,-794.5 "/>
<text text-anchor="start" x="96" y="-782.5" font-family="Helvetica,sans-Serif" font-size="10.00"># mIndex</text>
<polyline fill="none" stroke="black" points="88,-775.5 182,-775.5 "/>
<text text-anchor="start" x="96" y="-763.5" font-family="Helvetica,sans-Serif" font-size="10.00">+ Problem()</text>
<text text-anchor="start" x="96" y="-752.5" font-family="Helvetica,sans-Serif" font-size="10.00">+ ~Problem()</text>
<text text-anchor="start" x="96" y="-741.5" font-family="Helvetica,sans-Serif" font-size="10.00">+ run()</text>
<text text-anchor="start" x="96" y="-730.5" font-family="Helvetica,sans-Serif" font-size="10.00">+ run()</text>
<text text-anchor="start" x="96" y="-719.5" font-family="Helvetica,sans-Serif" font-size="10.00">+ push()</text>
<text text-anchor="start" x="96" y="-708.5" font-family="Helvetica,sans-Serif" font-size="10.00">+ pop()</text>
<text text-anchor="start" x="96" y="-697.5" font-family="Helvetica,sans-Serif" font-size="10.00">+ top()</text>
<text text-anchor="start" x="96" y="-686.5" font-family="Helvetica,sans-Serif" font-size="10.00">+ emptystack()</text>
<text text-anchor="start" x="96" y="-675.5" font-family="Helvetica,sans-Serif" font-size="10.00">+ setContext()</text>
<text text-anchor="start" x="96" y="-664.5" font-family="Helvetica,sans-Serif" font-size="10.00">+ setIndex()</text>
<text text-anchor="start" x="96" y="-653.5" font-family="Helvetica,sans-Serif" font-size="10.00">+ getContext()</text>
<text text-anchor="start" x="96" y="-642.5" font-family="Helvetica,sans-Serif" font-size="10.00">+ getIndex()</text>
<text text-anchor="start" x="96" y="-631.5" font-family="Helvetica,sans-Serif" font-size="10.00">+ toString()</text>
<text text-anchor="start" x="96" y="-620.5" font-family="Helvetica,sans-Serif" font-size="10.00">+ print()</text>
<text text-anchor="start" x="96" y="-609.5" font-family="Helvetica,sans-Serif" font-size="10.00">+ println()</text>
<text text-anchor="start" x="96" y="-598.5" font-family="Helvetica,sans-Serif" font-size="10.00">+ readPush()</text>
<text text-anchor="start" x="96" y="-587.5" font-family="Helvetica,sans-Serif" font-size="10.00"># initStackIntern()</text>
<text text-anchor="start" x="96" y="-576.5" font-family="Helvetica,sans-Serif" font-size="10.00"># readLine()</text>
<text text-anchor="start" x="96" y="-565.5" font-family="Helvetica,sans-Serif" font-size="10.00"># readHeader()</text>
</a>
</g>
</g>
<!-- Node4&#45;&gt;Node3 -->
<g id="edge3" class="edge"><title>Node4&#45;&gt;Node3</title>
<path fill="none" stroke="orange" d="M83.8051,-590.19C76.9593,-573.857 70.9485,-556.74 67,-540 64.7786,-530.582 63.0833,-520.77 61.8127,-510.84"/>
<polygon fill="orange" stroke="orange" points="80.7399,-591.92 87.923,-599.708 87.1643,-589.14 80.7399,-591.92"/>
<text text-anchor="middle" x="129" y="-532" font-family="Helvetica,sans-Serif" font-size="10.00"> &lt; emptyContext, Point2D &gt;</text>
</g>
<!-- Node5 -->
<g id="node5" class="node"><title>Node5</title>
<g id="a_node5"><a xlink:href="class_compare_stacks.html" target="_top" xlink:title="{CompareStacks\&lt; T, D \&gt;\n||+ CompareStacks()\l+ runCompare()\l+ printCompare()\l+ readPush()\l}">
<polygon fill="none" stroke="black" points="144.5,-332.5 144.5,-422.5 269.5,-422.5 269.5,-332.5 144.5,-332.5"/>
<text text-anchor="middle" x="207" y="-410.5" font-family="Helvetica,sans-Serif" font-size="10.00">CompareStacks&lt; T, D &gt;</text>
<polyline fill="none" stroke="black" points="144.5,-403.5 269.5,-403.5 "/>
<text text-anchor="middle" x="207" y="-391.5" font-family="Helvetica,sans-Serif" font-size="10.00"> </text>
<polyline fill="none" stroke="black" points="144.5,-384.5 269.5,-384.5 "/>
<text text-anchor="start" x="152.5" y="-372.5" font-family="Helvetica,sans-Serif" font-size="10.00">+ CompareStacks()</text>
<text text-anchor="start" x="152.5" y="-361.5" font-family="Helvetica,sans-Serif" font-size="10.00">+ runCompare()</text>
<text text-anchor="start" x="152.5" y="-350.5" font-family="Helvetica,sans-Serif" font-size="10.00">+ printCompare()</text>
<text text-anchor="start" x="152.5" y="-339.5" font-family="Helvetica,sans-Serif" font-size="10.00">+ readPush()</text>
</a>
</g>
</g>
<!-- Node4&#45;&gt;Node5 -->
<g id="edge5" class="edge"><title>Node4&#45;&gt;Node5</title>
<path fill="none" stroke="midnightblue" d="M185.176,-561.639C187.336,-554.378 189.303,-547.129 191,-540 200.296,-500.941 204.201,-455.325 205.835,-422.554"/>
<polygon fill="none" stroke="midnightblue" points="181.724,-560.953 182.116,-571.541 188.413,-563.02 181.724,-560.953"/>
</g>
<!-- Node5&#45;&gt;Node2 -->
<g id="edge4" class="edge"><title>Node5&#45;&gt;Node2</title>
<path fill="none" stroke="orange" d="M183.622,-322.847C167.009,-284.722 144.863,-233.894 128.652,-196.692"/>
<polygon fill="orange" stroke="orange" points="180.516,-324.481 187.719,-332.25 186.933,-321.684 180.516,-324.481"/>
<text text-anchor="middle" x="202" y="-218" font-family="Helvetica,sans-Serif" font-size="10.00"> &lt; emptyContext, Point2D &gt;</text>
</g>
</g>
</svg>
