<?xml version="1.0" encoding="UTF-8" standalone="no"?>
<!DOCTYPE svg PUBLIC "-//W3C//DTD SVG 1.1//EN"
 "http://www.w3.org/Graphics/SVG/1.1/DTD/svg11.dtd">
<!-- Generated by graphviz version 2.38.0 (20140413.2041)
 -->
<!-- Title: Graphical Class Hierarchy Pages: 1 -->
<svg width="357pt" height="78pt"
 viewBox="0.00 0.00 357.00 77.50" xmlns="http://www.w3.org/2000/svg" xmlns:xlink="http://www.w3.org/1999/xlink">
<g id="graph0" class="graph" transform="scale(1 1) rotate(0) translate(4 73.5)">
<title>Graphical Class Hierarchy</title>
<!-- Node1 -->
<g id="node1" class="node"><title>Node1</title>
<g id="a_node1"><a xlink:href="class_problem.html" target="_top" xlink:title="Problem\&lt; int, int \&gt;">
<polygon fill="none" stroke="black" points="0,-22.5 0,-41.5 98,-41.5 98,-22.5 0,-22.5"/>
<text text-anchor="middle" x="49" y="-29.5" font-family="Helvetica,sans-Serif" font-size="10.00">Problem&lt; int, int &gt;</text>
</a>
</g>
</g>
<!-- Node2 -->
<g id="node2" class="node"><title>Node2</title>
<g id="a_node2"><a xlink:href="class_compare_stacks.html" target="_top" xlink:title="CompareStacks\&lt; int,\l int \&gt;">
<polygon fill="none" stroke="black" points="134,-39 134,-69 244,-69 244,-39 134,-39"/>
<text text-anchor="start" x="142" y="-57" font-family="Helvetica,sans-Serif" font-size="10.00">CompareStacks&lt; int,</text>
<text text-anchor="middle" x="189" y="-46" font-family="Helvetica,sans-Serif" font-size="10.00"> int &gt;</text>
</a>
</g>
</g>
<!-- Node1&#45;&gt;Node2 -->
<g id="edge1" class="edge"><title>Node1&#45;&gt;Node2</title>
<path fill="none" stroke="midnightblue" d="M108.419,-41.3131C116.859,-42.6587 125.516,-44.0387 133.867,-45.3701"/>
<polygon fill="midnightblue" stroke="midnightblue" points="108.692,-37.8126 98.2657,-39.6945 107.59,-44.7253 108.692,-37.8126"/>
</g>
<!-- Node4 -->
<g id="node4" class="node"><title>Node4</title>
<g id="a_node4"><a xlink:href="class_instance.html" target="_top" xlink:title="Instance">
<polygon fill="none" stroke="black" points="162,-0.5 162,-19.5 216,-19.5 216,-0.5 162,-0.5"/>
<text text-anchor="middle" x="189" y="-7.5" font-family="Helvetica,sans-Serif" font-size="10.00">Instance</text>
</a>
</g>
</g>
<!-- Node1&#45;&gt;Node4 -->
<g id="edge3" class="edge"><title>Node1&#45;&gt;Node4</title>
<path fill="none" stroke="midnightblue" d="M108.169,-22.7267C126.79,-19.7581 146.491,-16.6174 161.662,-14.1987"/>
<polygon fill="midnightblue" stroke="midnightblue" points="107.59,-19.2747 98.2657,-24.3055 108.692,-26.1874 107.59,-19.2747"/>
</g>
<!-- Node3 -->
<g id="node3" class="node"><title>Node3</title>
<g id="a_node3"><a xlink:href="class_comparison.html" target="_top" xlink:title="Comparison">
<polygon fill="none" stroke="black" points="280,-44.5 280,-63.5 349,-63.5 349,-44.5 280,-44.5"/>
<text text-anchor="middle" x="314.5" y="-51.5" font-family="Helvetica,sans-Serif" font-size="10.00">Comparison</text>
</a>
</g>
</g>
<!-- Node2&#45;&gt;Node3 -->
<g id="edge2" class="edge"><title>Node2&#45;&gt;Node3</title>
<path fill="none" stroke="midnightblue" d="M254.214,-54C263.12,-54 271.958,-54 279.985,-54"/>
<polygon fill="midnightblue" stroke="midnightblue" points="254.169,-50.5001 244.169,-54 254.169,-57.5001 254.169,-50.5001"/>
</g>
</g>
</svg>
