<?xml version="1.0" encoding="UTF-8" standalone="no"?>
<!DOCTYPE svg PUBLIC "-//W3C//DTD SVG 1.1//EN"
 "http://www.w3.org/Graphics/SVG/1.1/DTD/svg11.dtd">
<!-- Generated by graphviz version 2.38.0 (20140413.2041)
 -->
<!-- Title: Graphical Class Hierarchy Pages: 1 -->
<svg width="485pt" height="78pt"
 viewBox="0.00 0.00 485.00 77.50" xmlns="http://www.w3.org/2000/svg" xmlns:xlink="http://www.w3.org/1999/xlink">
<g id="graph0" class="graph" transform="scale(1 1) rotate(0) translate(4 73.5)">
<title>Graphical Class Hierarchy</title>
<!-- Node1 -->
<g id="node1" class="node"><title>Node1</title>
<g id="a_node1"><a xlink:href="class_problem.html" target="_top" xlink:title="Problem\&lt; emptyContext,\l Point2D \&gt;">
<polygon fill="none" stroke="black" points="0,-17 0,-47 126,-47 126,-17 0,-17"/>
<text text-anchor="start" x="8" y="-35" font-family="Helvetica,sans-Serif" font-size="10.00">Problem&lt; emptyContext,</text>
<text text-anchor="middle" x="63" y="-24" font-family="Helvetica,sans-Serif" font-size="10.00"> Point2D &gt;</text>
</a>
</g>
</g>
<!-- Node2 -->
<g id="node2" class="node"><title>Node2</title>
<g id="a_node2"><a xlink:href="class_compare_stacks.html" target="_top" xlink:title="CompareStacks\&lt; emptyContext,\l Point2D \&gt;">
<polygon fill="none" stroke="black" points="162,-39 162,-69 323,-69 323,-39 162,-39"/>
<text text-anchor="start" x="170" y="-57" font-family="Helvetica,sans-Serif" font-size="10.00">CompareStacks&lt; emptyContext,</text>
<text text-anchor="middle" x="242.5" y="-46" font-family="Helvetica,sans-Serif" font-size="10.00"> Point2D &gt;</text>
</a>
</g>
</g>
<!-- Node1&#45;&gt;Node2 -->
<g id="edge1" class="edge"><title>Node1&#45;&gt;Node2</title>
<path fill="none" stroke="midnightblue" d="M136.284,-40.9591C144.75,-42.0085 153.424,-43.0835 161.982,-44.1442"/>
<polygon fill="midnightblue" stroke="midnightblue" points="136.435,-37.4512 126.081,-39.6945 135.574,-44.3981 136.435,-37.4512"/>
</g>
<!-- Node4 -->
<g id="node4" class="node"><title>Node4</title>
<g id="a_node4"><a xlink:href="classconvex_hull.html" target="_top" xlink:title="convexHull">
<polygon fill="none" stroke="black" points="210,-0.5 210,-19.5 275,-19.5 275,-0.5 210,-0.5"/>
<text text-anchor="middle" x="242.5" y="-7.5" font-family="Helvetica,sans-Serif" font-size="10.00">convexHull</text>
</a>
</g>
</g>
<!-- Node1&#45;&gt;Node4 -->
<g id="edge3" class="edge"><title>Node1&#45;&gt;Node4</title>
<path fill="none" stroke="midnightblue" d="M136.134,-23.0594C161.685,-19.8925 189.142,-16.4895 209.619,-13.9514"/>
<polygon fill="midnightblue" stroke="midnightblue" points="135.574,-19.6019 126.081,-24.3055 136.435,-26.5488 135.574,-19.6019"/>
</g>
<!-- Node3 -->
<g id="node3" class="node"><title>Node3</title>
<g id="a_node3"><a xlink:href="classcomparison_convex_hull.html" target="_top" xlink:title="comparisonConvexHull">
<polygon fill="none" stroke="black" points="359,-44.5 359,-63.5 477,-63.5 477,-44.5 359,-44.5"/>
<text text-anchor="middle" x="418" y="-51.5" font-family="Helvetica,sans-Serif" font-size="10.00">comparisonConvexHull</text>
</a>
</g>
</g>
<!-- Node2&#45;&gt;Node3 -->
<g id="edge2" class="edge"><title>Node2&#45;&gt;Node3</title>
<path fill="none" stroke="midnightblue" d="M333.311,-54C341.976,-54 350.6,-54 358.837,-54"/>
<polygon fill="midnightblue" stroke="midnightblue" points="333.141,-50.5001 323.141,-54 333.141,-57.5001 333.141,-50.5001"/>
</g>
</g>
</svg>
