<?xml version="1.0" encoding="UTF-8" standalone="no"?>
<!DOCTYPE svg PUBLIC "-//W3C//DTD SVG 1.1//EN"
 "http://www.w3.org/Graphics/SVG/1.1/DTD/svg11.dtd">
<!-- Generated by graphviz version 2.38.0 (20140413.2041)
 -->
<!-- Title: Graphical Class Hierarchy Pages: 1 -->
<svg width="259pt" height="66pt"
 viewBox="0.00 0.00 259.00 66.00" xmlns="http://www.w3.org/2000/svg" xmlns:xlink="http://www.w3.org/1999/xlink">
<g id="graph0" class="graph" transform="scale(1 1) rotate(0) translate(4 62)">
<title>Graphical Class Hierarchy</title>
<!-- Node1 -->
<g id="node1" class="node"><title>Node1</title>
<g id="a_node1"><a xlink:href="class_stack.html" target="_top" xlink:title="Stack\&lt; T, D \&gt;">
<polygon fill="none" stroke="black" points="0,-19.5 0,-38.5 80,-38.5 80,-19.5 0,-19.5"/>
<text text-anchor="middle" x="40" y="-26.5" font-family="Helvetica,sans-Serif" font-size="10.00">Stack&lt; T, D &gt;</text>
</a>
</g>
</g>
<!-- Node2 -->
<g id="node2" class="node"><title>Node2</title>
<g id="a_node2"><a xlink:href="class_compressed_stack.html" target="_top" xlink:title="CompressedStack\&lt; T, D \&gt;">
<polygon fill="none" stroke="black" points="116,-38.5 116,-57.5 251,-57.5 251,-38.5 116,-38.5"/>
<text text-anchor="middle" x="183.5" y="-45.5" font-family="Helvetica,sans-Serif" font-size="10.00">CompressedStack&lt; T, D &gt;</text>
</a>
</g>
</g>
<!-- Node1&#45;&gt;Node2 -->
<g id="edge1" class="edge"><title>Node1&#45;&gt;Node2</title>
<path fill="none" stroke="midnightblue" d="M89.9825,-35.5771C98.3456,-36.7001 107.158,-37.8835 115.887,-39.0555"/>
<polygon fill="midnightblue" stroke="midnightblue" points="90.4169,-32.1042 80.0401,-34.2421 89.4853,-39.0419 90.4169,-32.1042"/>
</g>
<!-- Node3 -->
<g id="node3" class="node"><title>Node3</title>
<g id="a_node3"><a xlink:href="class_normal_stack.html" target="_top" xlink:title="NormalStack\&lt; T, D \&gt;">
<polygon fill="none" stroke="black" points="128,-0.5 128,-19.5 239,-19.5 239,-0.5 128,-0.5"/>
<text text-anchor="middle" x="183.5" y="-7.5" font-family="Helvetica,sans-Serif" font-size="10.00">NormalStack&lt; T, D &gt;</text>
</a>
</g>
</g>
<!-- Node1&#45;&gt;Node3 -->
<g id="edge2" class="edge"><title>Node1&#45;&gt;Node3</title>
<path fill="none" stroke="midnightblue" d="M90.0554,-22.413C102.29,-20.7702 115.484,-18.9986 127.966,-17.3226"/>
<polygon fill="midnightblue" stroke="midnightblue" points="89.4853,-18.9581 80.0401,-23.7579 90.4169,-25.8958 89.4853,-18.9581"/>
</g>
</g>
</svg>
